<?xml version="1.0" standalone="no"?>
<!DOCTYPE svg PUBLIC "-//W3C//DTD SVG 20010904//EN"
 "http://www.w3.org/TR/2001/REC-SVG-20010904/DTD/svg10.dtd">
<svg version="1.0" xmlns="http://www.w3.org/2000/svg"
 width="515.000000pt" height="85.000000pt" viewBox="0 0 515.000000 85.000000"
 preserveAspectRatio="xMidYMid meet">

<g transform="translate(0.000000,85.000000) scale(0.100000,-0.100000)"
fill="#000000" stroke="none">
<path d="M4045 836 c-32 -14 -88 -71 -255 -262 -58 -65 -140 -158 -182 -205
-43 -47 -78 -89 -78 -92 0 -4 42 -7 94 -7 l94 0 85 93 c46 50 121 134 166 185
45 50 86 92 92 92 9 0 109 -192 109 -210 0 -6 -43 -10 -113 -10 l-113 0 -45
-47 c-24 -27 -55 -60 -68 -75 l-24 -28 326 1 327 0 -13 28 c-6 15 -63 128
-125 252 -147 290 -182 327 -277 285z"/>
<path d="M505 828 c-2 -7 -16 -78 -31 -158 -43 -239 -47 -244 -210 -248 l-114
-4 -66 -71 -66 -72 143 -3 c190 -4 279 17 371 90 70 55 75 70 123 348 8 47 17
95 20 108 5 21 3 22 -80 22 -60 0 -87 -4 -90 -12z"/>
<path d="M751 778 c-52 -299 -81 -471 -81 -488 0 -19 7 -20 265 -20 l266 0 69
71 c39 39 70 73 70 75 0 2 -106 4 -235 4 -257 0 -245 -3 -229 58 6 22 8 22
178 22 l172 0 58 59 c44 44 54 60 42 64 -8 3 -99 6 -201 6 -102 0 -192 1 -200
1 -10 0 -15 10 -15 30 l0 30 188 0 189 0 38 43 c21 23 52 57 69 75 l30 32
-331 0 -331 0 -11 -62z"/>
<path d="M1543 819 c-122 -47 -177 -170 -112 -253 42 -54 69 -60 261 -64 l176
-4 4 26 3 26 79 -46 79 -46 -77 -49 c-42 -27 -79 -49 -81 -49 -3 0 -5 14 -5
30 l0 30 -203 0 -203 0 -67 -68 c-37 -37 -67 -71 -67 -75 0 -5 141 -7 313 -5
295 3 315 4 359 25 139 64 170 224 56 293 -30 18 -51 20 -220 20 -159 0 -188
-2 -188 -15 0 -16 -8 -14 -89 29 l-54 28 61 39 c70 44 82 47 82 19 0 -19 7
-20 229 -20 l229 0 12 34 c6 19 24 53 41 75 l29 41 -297 -1 c-270 -1 -303 -2
-350 -20z"/>
<path d="M2312 819 c-135 -52 -183 -196 -92 -273 46 -38 90 -46 262 -46 l157
0 3 24 c3 24 3 24 75 -18 40 -22 73 -44 73 -48 0 -6 -28 -24 -112 -75 l-38
-22 0 30 0 29 -226 -2 -227 -3 -14 -40 c-7 -22 -28 -55 -46 -73 l-32 -33 315
4 c351 4 368 7 429 69 84 83 75 205 -19 253 -43 22 -400 22 -400 0 0 -8 -2
-15 -5 -15 -10 0 -115 62 -120 71 -3 4 23 26 57 48 61 39 63 40 68 18 6 -22 7
-22 278 -25 l272 -2 -37 75 -37 75 -266 -1 c-242 0 -270 -2 -318 -20z"/>
<path d="M2990 829 c0 -6 15 -39 34 -72 18 -34 75 -144 125 -245 105 -208 132
-242 188 -242 69 1 83 13 293 250 41 46 113 127 160 180 47 52 94 105 104 118
l19 22 -100 0 -100 0 -153 -177 c-108 -126 -159 -178 -174 -178 -17 0 -37 32
-110 178 l-89 177 -99 0 c-64 0 -98 -4 -98 -11z"/>
<path d="M4591 788 c-17 -89 -91 -503 -91 -511 0 -4 109 -7 241 -7 l242 0 76
75 76 75 -218 0 -219 0 6 28 c7 34 52 293 61 350 l7 42 -85 0 -86 0 -10 -52z"/>
<path d="M4020 230 c-11 -20 -40 -157 -40 -186 0 -8 9 -14 19 -14 16 0 21 13
33 78 8 42 11 81 6 86 -4 6 2 20 14 33 l21 23 -21 0 c-12 0 -26 -9 -32 -20z"/>
<path d="M1297 190 c-23 -14 -47 -63 -47 -95 0 -63 89 -89 135 -39 28 30 33
87 11 117 -17 22 -74 31 -99 17z m71 -53 c10 -51 -31 -94 -63 -67 -18 15 -19
29 -5 65 8 21 16 26 37 23 17 -2 29 -10 31 -21z"/>
<path d="M1535 191 c-3 -6 -10 -36 -16 -68 -5 -32 -12 -66 -15 -75 -4 -13 0
-18 15 -18 13 0 23 8 27 24 4 18 15 26 40 31 44 8 68 42 55 77 -12 33 -90 54
-106 29z m70 -51 c0 -8 -10 -16 -22 -18 -22 -3 -32 16 -16 32 12 11 38 2 38
-14z"/>
<path d="M1761 178 c-5 -13 -12 -51 -16 -85 l-7 -63 56 0 c50 0 56 2 56 21 0
17 -5 20 -32 17 -47 -4 -45 25 1 32 46 7 52 28 9 32 -45 4 -42 22 5 26 27 2
37 8 37 21 0 14 -10 18 -50 20 -44 2 -51 -1 -59 -21z"/>
<path d="M1985 188 c-10 -29 -25 -105 -25 -130 0 -21 5 -28 20 -28 16 0 20 7
20 31 0 26 3 30 23 27 16 -2 23 -11 25 -31 2 -19 9 -27 24 -27 17 0 20 5 16
38 -3 20 0 44 5 53 15 24 0 66 -25 73 -38 10 -78 7 -83 -6z m73 -45 c-2 -12
-11 -17 -23 -15 -25 5 -29 8 -20 21 11 19 47 13 43 -6z"/>
<path d="M2220 120 c-22 -44 -40 -82 -40 -85 0 -12 38 -4 44 10 3 8 17 15 31
15 14 0 28 -7 31 -15 4 -8 15 -15 25 -15 20 0 20 -1 -2 118 -16 79 -39 72 -89
-28z m60 -5 c0 -8 -7 -15 -15 -15 -9 0 -12 6 -9 15 4 8 10 15 15 15 5 0 9 -7
9 -15z"/>
<path d="M2452 184 c-5 -11 -12 -37 -16 -59 -4 -22 -9 -53 -12 -69 l-6 -29 57
5 c65 5 90 25 100 78 9 49 -17 79 -72 87 -33 4 -43 2 -51 -13z m76 -41 c16
-28 -6 -73 -35 -73 -23 0 -25 3 -19 31 3 17 6 38 6 45 0 20 37 17 48 -3z"/>
<path d="M2722 190 c-48 -20 -63 -116 -23 -147 27 -21 79 -15 106 12 34 33 35
107 3 129 -25 18 -52 19 -86 6z m68 -64 c0 -59 -61 -92 -68 -37 -7 47 6 71 38
71 27 0 30 -3 30 -34z"/>
<path d="M2964 193 c-10 -8 -34 -108 -34 -145 0 -31 38 -23 42 10 2 19 9 27
23 27 14 0 21 -8 23 -27 3 -21 9 -28 25 -28 20 0 22 6 24 53 1 28 2 61 3 71 0
10 -3 23 -8 28 -13 13 -84 21 -98 11z m69 -40 c4 -3 2 -12 -3 -19 -14 -16 -50
-6 -43 12 5 14 35 19 46 7z"/>
<path d="M3297 186 c-8 -8 -17 -39 -21 -69 -3 -31 -9 -62 -12 -71 -5 -14 3
-16 55 -16 54 0 61 2 61 20 0 16 -7 20 -36 20 -32 0 -36 2 -31 23 24 94 18
127 -16 93z"/>
<path d="M3499 171 c-22 -23 -29 -39 -29 -70 0 -47 26 -71 75 -71 72 1 110 86
64 144 -28 36 -72 35 -110 -3z m86 -30 c6 -21 -8 -66 -24 -76 -6 -3 -20 -3
-31 0 -22 7 -27 44 -10 76 14 25 57 25 65 0z"/>
<path d="M3759 171 c-35 -35 -41 -97 -11 -124 22 -20 122 -22 122 -2 0 7 3 27
6 44 6 31 6 31 -35 31 -35 0 -42 -3 -39 -17 2 -10 10 -17 17 -15 7 1 11 -3 9
-10 -3 -7 -16 -13 -29 -13 -19 0 -25 6 -27 27 -2 15 2 36 8 48 13 23 48 27 56
5 4 -8 15 -15 25 -15 25 0 24 25 -1 50 -29 29 -66 25 -101 -9z"/>
<path d="M4168 189 c-11 -6 -18 -22 -18 -39 0 -22 8 -33 36 -49 19 -12 32 -26
29 -31 -9 -15 -35 -12 -41 5 -8 19 -44 20 -44 2 0 -43 83 -63 114 -28 23 25
13 55 -25 78 -29 17 -38 33 -19 33 6 0 19 -6 30 -12 31 -20 48 4 21 31 -23 23
-55 27 -83 10z"/>
<path d="M4373 193 c-21 -8 -15 -33 8 -33 20 0 21 -4 15 -50 -4 -28 -9 -57
-13 -66 -4 -12 0 -15 18 -12 20 3 25 11 34 63 8 51 13 60 33 63 14 2 22 10 22
23 0 16 -7 19 -52 18 -29 0 -59 -3 -65 -6z"/>
<path d="M4604 192 c-12 -8 -34 -97 -34 -138 0 -19 5 -25 17 -22 14 2 21 21
31 77 13 72 8 98 -14 83z"/>
<path d="M4773 190 c-45 -19 -62 -102 -28 -140 24 -26 78 -27 105 0 11 11 20
25 20 30 0 6 -9 10 -20 10 -11 0 -20 -4 -20 -9 0 -15 -32 -22 -46 -10 -15 12
-18 46 -8 73 8 21 44 20 59 -1 12 -16 45 -13 45 5 0 34 -65 60 -107 42z"/>
<path d="M5023 190 c-26 -11 -53 -59 -53 -95 0 -49 60 -80 115 -59 37 15 58
102 33 137 -16 21 -65 30 -95 17z m65 -53 c10 -51 -31 -94 -63 -67 -18 15 -19
29 -5 65 8 21 16 26 37 23 17 -2 29 -10 31 -21z"/>
</g>
</svg>
